<mxfile host="app.diagrams.net" modified="2024-04-05T21:52:37.456Z" agent="Mozilla/5.0 (Windows NT 10.0; Win64; x64) AppleWebKit/537.36 (KHTML, like Gecko) Chrome/123.0.0.0 Safari/537.36 Edg/123.0.0.0" etag="5AnZJxXSEPcsHkbT9Nio" version="24.2.2" type="github">
  <diagram name="Page-1" id="LOSZ1FWgoLgy8YeMMQaR">
    <mxGraphModel dx="872" dy="447" grid="1" gridSize="10" guides="1" tooltips="1" connect="1" arrows="1" fold="1" page="1" pageScale="1" pageWidth="850" pageHeight="1100" math="0" shadow="0">
      <root>
        <mxCell id="0" />
        <mxCell id="1" parent="0" />
        <mxCell id="I0UMfI3KOqK4CbEHnL_U-24" value="" style="edgeStyle=orthogonalEdgeStyle;rounded=0;orthogonalLoop=1;jettySize=auto;html=1;" edge="1" parent="1" source="I0UMfI3KOqK4CbEHnL_U-1">
          <mxGeometry relative="1" as="geometry">
            <mxPoint x="380" y="120" as="targetPoint" />
          </mxGeometry>
        </mxCell>
        <mxCell id="I0UMfI3KOqK4CbEHnL_U-1" value="START" style="ellipse;whiteSpace=wrap;html=1;" vertex="1" parent="1">
          <mxGeometry x="320" width="120" height="80" as="geometry" />
        </mxCell>
        <mxCell id="I0UMfI3KOqK4CbEHnL_U-26" value="" style="edgeStyle=orthogonalEdgeStyle;rounded=0;orthogonalLoop=1;jettySize=auto;html=1;" edge="1" parent="1">
          <mxGeometry relative="1" as="geometry">
            <mxPoint x="380" y="180" as="sourcePoint" />
            <mxPoint x="380" y="260" as="targetPoint" />
          </mxGeometry>
        </mxCell>
        <mxCell id="I0UMfI3KOqK4CbEHnL_U-29" value="" style="edgeStyle=orthogonalEdgeStyle;rounded=0;orthogonalLoop=1;jettySize=auto;html=1;" edge="1" parent="1" source="I0UMfI3KOqK4CbEHnL_U-27" target="I0UMfI3KOqK4CbEHnL_U-28">
          <mxGeometry relative="1" as="geometry" />
        </mxCell>
        <mxCell id="I0UMfI3KOqK4CbEHnL_U-27" value="SUM=NUM1+NUM2+NUM3" style="rounded=0;whiteSpace=wrap;html=1;" vertex="1" parent="1">
          <mxGeometry x="250" y="260" width="280" height="60" as="geometry" />
        </mxCell>
        <mxCell id="I0UMfI3KOqK4CbEHnL_U-28" value="PRINT SUM" style="shape=document;whiteSpace=wrap;html=1;boundedLbl=1;rounded=0;" vertex="1" parent="1">
          <mxGeometry x="330" y="390" width="120" height="80" as="geometry" />
        </mxCell>
        <mxCell id="I0UMfI3KOqK4CbEHnL_U-31" value="NUM1=1,&lt;div&gt;NUM2=2, NUM3=3,&lt;/div&gt;" style="shape=parallelogram;perimeter=parallelogramPerimeter;whiteSpace=wrap;html=1;fixedSize=1;" vertex="1" parent="1">
          <mxGeometry x="320" y="120" width="140" height="60" as="geometry" />
        </mxCell>
      </root>
    </mxGraphModel>
  </diagram>
</mxfile>
